<svg xmlns="http://www.w3.org/2000/svg" viewBox="0 0 512 512"><defs><linearGradient id="g" x1="0" y1="0" x2="1" y2="1"><stop stop-color="#08233f"/><stop offset="1" stop-color="#030712"/></linearGradient></defs><rect width="512" height="512" rx="112" fill="url(#g)"/><path d="M151 318h192c47 0 85-37 85-83s-38-83-85-83h-8c-23-43-69-72-121-72-76 0-138 59-138 132 0 6 1 12 2 18-33 11-57 42-57 78 0 45 37 82 82 82h48z" fill="#dff8ff" opacity=".95"/><path d="M274 222l-68 112h78l-50 118 111-157h-82l55-73z" fill="#00d7ff"/><path d="M151 318h192c47 0 85-37 85-83" fill="none" stroke="#ffb21a" stroke-width="18" stroke-linecap="round" opacity=".9"/></svg>
