<svg xmlns="http://www.w3.org/2000/svg" viewBox="0 0 512 512" width="512" height="512">
  <defs>
    <radialGradient id="bg" cx="50%" cy="0%" r="120%">
      <stop offset="0%" stop-color="#1a2447"/>
      <stop offset="50%" stop-color="#0a0f1f"/>
      <stop offset="100%" stop-color="#04060c"/>
    </radialGradient>
    <linearGradient id="bolt" x1="0" y1="0" x2="1" y2="1">
      <stop offset="0%" stop-color="#fbbf24"/>
      <stop offset="100%" stop-color="#f59e0b"/>
    </linearGradient>
    <linearGradient id="storm" x1="0" y1="0" x2="0" y2="1">
      <stop offset="0%" stop-color="#7dd3fc"/>
      <stop offset="100%" stop-color="#0ea5e9"/>
    </linearGradient>
  </defs>
  <rect width="512" height="512" rx="112" fill="url(#bg)"/>
  <!-- swirling cloud -->
  <path d="M120 270c0-44 36-80 80-80 6 0 12 0 18 2 14-38 50-66 92-66 50 0 92 38 98 86 6-2 12-2 18-2 33 0 60 27 60 60 0 33-27 60-60 60H180c-33 0-60-27-60-60z" fill="url(#storm)" opacity="0.92"/>
  <!-- lightning bolt -->
  <path d="M260 200l-58 110h44l-18 88 84-128h-46l24-70z" fill="url(#bolt)" stroke="#fff" stroke-width="6" stroke-linejoin="round"/>
</svg>
