<svg xmlns="http://www.w3.org/2000/svg" viewBox="0 0 512 512"><defs><linearGradient id="g" x1="0" y1="0" x2="1" y2="1"><stop stop-color="#1a2332"/><stop offset="1" stop-color="#050816"/></linearGradient></defs><rect width="512" height="512" rx="112" fill="url(#g)"/><path d="M93 298c0-43 30-79 71-88 15-58 68-101 131-101 75 0 136 59 139 133 40 13 68 50 68 94 0 55-45 100-100 100H193c-55 0-100-45-100-100z" fill="#e7f8ff" opacity=".92"/><path d="M286 225l-73 122h75l-39 109 118-159h-80l49-72z" fill="#fbbf24"/><path d="M129 328h236" stroke="#22d3ee" stroke-width="20" stroke-linecap="round" opacity=".75"/></svg>
